<?xml version="1.0" encoding="utf-8"?>
<!-- Generator: Adobe Illustrator 22.1.0, SVG Export Plug-In . SVG Version: 6.00 Build 0)  -->
<svg version="1.1" id="Capa_1" xmlns="http://www.w3.org/2000/svg" xmlns:xlink="http://www.w3.org/1999/xlink" x="0px" y="0px"
	 viewBox="0 0 35 35" style="enable-background:new 0 0 35 35;" xml:space="preserve">
<style type="text/css">
	.st0{fill:#FFFFFF;}
	.st1{fill:#FF5500;}
	.st2{fill:#E6E6E6;}
</style>
<g>
	<path fill="#ffffff" d="M2,17.7c0-1.3,0.2-2.6,0.5-3.9c0.3-1,0.6-2.1,1-3C4,9.8,4.6,9,5.2,8.1c0.5-0.7,1-1.3,1.6-1.8c0.9-0.8,1.9-1.6,2.9-2.2
		c0.9-0.6,2-1,3-1.3c0.9-0.3,1.9-0.5,2.9-0.6C16.5,2,17.4,2,18.3,2c1.5,0.1,3,0.4,4.4,0.9c1,0.3,1.9,0.8,2.8,1.3
		c0.9,0.6,1.8,1.2,2.6,2c0.5,0.5,1,1,1.4,1.5c0.5,0.7,1.1,1.4,1.5,2.2c0.4,0.7,0.7,1.4,1,2.1c0.4,1,0.6,2,0.8,3.1
		c0.1,0.4,0.1,0.9,0.1,1.3c0,0.5,0,1.1,0,1.6c0,0.4-0.1,0.9-0.1,1.3c0,0.4-0.1,0.8-0.2,1.2c-0.2,0.9-0.4,1.7-0.7,2.5
		c-0.5,1.2-1.1,2.3-1.8,3.3c-0.7,0.9-1.4,1.8-2.3,2.6c-0.7,0.6-1.3,1.1-2.1,1.6c-0.9,0.6-1.8,1-2.8,1.4c-0.7,0.3-1.3,0.5-2,0.6
		c-0.5,0.1-1,0.2-1.5,0.3c-0.4,0.1-0.9,0.1-1.3,0.1c-0.5,0-1,0-1.5,0c-0.5,0-0.9-0.1-1.4-0.1c-0.7-0.1-1.4-0.3-2.1-0.5
		c-1.9-0.5-3.6-1.4-5.1-2.6c-0.6-0.5-1.2-1-1.8-1.6c-0.7-0.7-1.3-1.5-1.8-2.3c-1-1.4-1.6-3-2-4.7c-0.2-0.7-0.3-1.4-0.4-2.2
		C2.1,18.5,2,18.1,2,17.7z M17.5,3.6C9.9,3.6,3.7,9.8,3.6,17.4c0,7.6,6,13.8,13.5,14c7.9,0.2,14.4-6.3,14.2-14.2
		C31.2,9.6,25,3.6,17.5,3.6z"/>
	<path fill="#ffffff" d="M21.4,22.1l-0.2,0.8l0.6,4l0.7,1.2l0.1,0.9l-1,0.1L21.3,29l-1.1-0.7l-0.6-0.7l0-0.8l0-0.6l-1.3-4.3l-2.9-3.1l-1.5,3.9
		l-0.2,0.7l-1,2.1l-0.4,0.3L10.7,26l0.1,1.5l-1.1,0.3L9,27.2L8.8,27l-0.4-1.7l2.7-3.3l1.2-4.8l-0.2-1l0.2-0.7L12,15.4l0.8-5.4
		l1.9-2.2l0.4,0c0,0-0.1-0.3-0.1-0.5c0-0.3,0-0.6,0.1-0.9c0.2-0.7,0.7-1.1,1.4-1.4c0.2-0.1,0.4-0.1,0.7-0.1c0.4,0,0.9,0.1,1.1,0.3
		c0.4,0.4,0.6,0.7,0.8,1.2c0.2,0.4,0,0.4-0.2,0.8c-0.1,0.1-0.1,0.3-0.2,0.4c-0.1,0.2,0,0.6,0,0.6l0.5,0l0.6-0.5l0.7,0l0.2-0.2l0.6,0
		l0.2,0.4L23.2,8l0.2-0.1l0.2-0.3l0.3,0.1v0.4l0.9,0.1l0,0L25.2,8L25.3,8l-0.1,0.2l1,0V7.9l0.3,0v0.5l0.3,0.1l-0.2,0.3L27.2,9v0.3
		l-0.6,0l-0.3,0.1l-0.3,0.1l-1.2,0.2l-0.9,1l-0.5-0.4l0,0.7l0.8,1.8l0,0.2L24,13l-0.3-0.1l-0.8-2.1l-0.1-0.2l-0.1-0.1l0,0.8
		l-0.3,0.3l-0.8-0.2L21,11.7l-0.3,0.4l-0.9,0.4l-1.6,0.3l-0.5,0.3l-0.1,1.4l-0.4,0.1l-0.2,1l0.6,0.2l0.8,1.1l0.7,0.9l0.4,0.7
		l-0.1,0.3l-0.2,0.5L21.4,22.1z M18.1,10.2l0.3,0.2l0.4,0l0.5-0.4l0.6-0.1l0.4-0.3l-1.3-0.2L18.3,10L18.1,10.2z"/>
</g>
</svg>
