<?xml version="1.0" encoding="utf-8"?>
<!-- Generator: Adobe Illustrator 22.1.0, SVG Export Plug-In . SVG Version: 6.00 Build 0)  -->
<svg version="1.1" id="Capa_1" xmlns="http://www.w3.org/2000/svg" xmlns:xlink="http://www.w3.org/1999/xlink" x="0px" y="0px"
	 viewBox="0 0 35 35" style="enable-background:new 0 0 35 35;" xml:space="preserve">
<style type="text/css">
	.st0{fill:#FFFFFF;}
	.st1{fill:#FF5500;}
	.st2{fill:#E6E6E6;}
</style>
<g>
	<path fill="#ffffff" d="M17.5,7c2.6,0,4.9,0.9,6.7,2.4l3.5-3.5C25,3.5,21.4,2,17.5,2S10,3.5,7.3,5.9l3.5,3.5C12.6,7.9,14.9,7,17.5,7z"/>
	<path fill="#ffffff" d="M29.2,7.3l-3.5,3.5c1.5,1.8,2.4,4.1,2.4,6.7c0,1.9-0.5,3.7-1.4,5.3l-5.3-5.3l-2.8-5.8v8.1l5.8,5.8
		c-1.8,1.5-4.2,2.5-6.8,2.5s-4.9-0.9-6.8-2.5l5.8-5.8v-8.1l-2.8,5.8l-5.3,5.3C7.5,21.2,7,19.4,7,17.5c0-2.5,0.9-4.8,2.4-6.7L5.8,7.3
		C3.5,10,2,13.6,2,17.5C2,26.1,8.9,33,17.5,33S33,26.1,33,17.5C33,13.6,31.5,10,29.2,7.3z"/>
</g>
</svg>
