<?xml version="1.0" encoding="UTF-8" standalone="no"?>
<svg
   xmlns:dc="http://purl.org/dc/elements/1.1/"
   xmlns:cc="http://creativecommons.org/ns#"
   xmlns:rdf="http://www.w3.org/1999/02/22-rdf-syntax-ns#"
   xmlns:svg="http://www.w3.org/2000/svg"
   xmlns="http://www.w3.org/2000/svg"
   viewBox="0 0 1672.0533 1600"
   height="1600"
   width="1672.0533"
   xml:space="preserve"
   id="svg2"
   version="1.1"><metadata
     id="metadata8"><rdf:RDF><cc:Work
         rdf:about=""><dc:format>image/svg+xml</dc:format><dc:type
           rdf:resource="http://purl.org/dc/dcmitype/StillImage" /></cc:Work></rdf:RDF></metadata><defs
     id="defs6" /><g
     transform="matrix(1.3333333,0,0,-1.3333333,0,1600)"
     id="g10"><g
       transform="scale(0.1)"
       id="g12"><path
         id="path14"
         style="fill:#d01c2e;fill-opacity:1;fill-rule:nonzero;stroke:none"
         d="m 11386,11356.3 -634.9,-1050.5 h -554.3 V 4291.3 h 538.9 L 11373,3240.51 H 7552.7 l 639.45,1050.79 h 526.76 V 8824.92 L 6270.8,4682.66 l -0.61,2.72 -2.12,-2.12 -2446.89,4142.27 V 4293.42 h 526.76 l 639.13,-1052 H 1166.5 l 638.83,1052 h 540.08 v 6012.68 h -556.74 l -634.59,1051.1 h 2656.2 L 6270.19,7201.64 8730.11,11356.3 H 11386" /><path
         id="path16"
         style="fill:#100f0d;fill-opacity:1;fill-rule:nonzero;stroke:none"
         d="M 12540.4,599.199 V 594 c 0,-362.301 -279.6,-585.80078 -679.1,-585.80078 -276.9,0 -540.7,85.10158 -759.1,274.10178 l 255.6,349 c 152.1,-125.102 325.1,-210.602 506.2,-210.602 127.8,0 194.5,56.102 194.5,136 v 2.801 c 0,74.5 -56.1,119.602 -274.5,196.902 -351.3,119.899 -599.1,247.698 -599.1,585.798 v 8.2 c 0,338 258.4,575.2 665.8,575.2 250.2,0 471.3,-69.4 665.8,-226.6 l -242.4,-356.8 c -127.8,98.7 -282.3,170.5 -434,170.5 -109.4,0 -170.6,-53.3 -170.6,-122.3 v -2.8 c 0,-82.7 58.8,-125.1 295.7,-213.2 354.1,-114.5 575.2,-258.099 575.2,-575.201" /><path
         id="path18"
         style="fill:#100f0d;fill-opacity:1;fill-rule:nonzero;stroke:none"
         d="m 10751.1,10305.8 634.9,1050.5 H 8730.11 L 6270.19,7201.64 3810.28,11357.2 h -2656.2 l 634.59,-1051.1 h 556.74 V 4293.42 h -540.08 l -638.83,-1052 h 3820.57 l -639.13,1052 h -526.76 v 4532.11 l 2446.89,-4142.27 2.12,2.12 0.61,-2.72 2448.11,4142.26 V 4291.3 H 8192.15 L 7552.7,3240.51 H 11373 l -637.3,1050.79 h -538.9 v 6014.5 z m 1778.4,1693.6 -1412.2,-2337.85 h -275 V 4936.19 h 257.5 l 1420,-2341.79 H 6406.5 l 1420.03,2341.79 h 244.76 V 6460.12 C 7450.93,5409.02 6829.36,4356.43 6829.36,4356.43 l -561.29,-942.66 c 0,0 -1179.52,1995.86 -1800.18,3047.56 V 4936.19 h 245.36 L 6134.19,2595.62 H 20.5977 L 1441.23,4936.19 h 256.26 V 9662.16 H 1423.36 L 10.9063,12000 H 4179.52 l 2090.67,-3531.3 2090.68,3530.7 h 4168.63" /><path
         id="path20"
         style="fill:#100f0d;fill-opacity:1;fill-rule:nonzero;stroke:none"
         d="m 10809.3,1898.9 v -431.3 h -460.8 V 34.8008 H 9869.34 V 1467.6 h -460.72 v 431.3 h 1400.68" /><path
         id="path22"
         style="fill:#100f0d;fill-opacity:1;fill-rule:nonzero;stroke:none"
         d="m 8535.04,1235.9 v 5.1 c 0,159.9 -101.17,239.9 -260.8,239.9 H 8039.78 V 993.5 h 236.88 c 162.66,0 258.38,93 258.38,242.4 z M 8684.37,711.199 9067.85,34.8008 H 8527.16 L 8210.32,612.5 H 8039.78 V 34.8008 H 7563.01 V 1898.9 h 732.43 c 250.19,0 439.52,-66.6 559.17,-189 103.89,-103.9 162.35,-247.8 162.35,-436.8 v -13.3 c 0,-277.198 -135.7,-450.101 -332.59,-548.601" /><path
         id="path24"
         style="fill:#100f0d;fill-opacity:1;fill-rule:nonzero;stroke:none"
         d="m 6583.09,950.801 v 29.398 c 0,322.001 -154.48,519.201 -375.6,519.201 -220.82,0 -372.88,-194.5 -372.88,-516.798 v -29 c 0,-322.301 154.49,-519.5 375.61,-519.5 223.85,0 372.87,194.398 372.87,516.699 z m 490.11,37.301 v -40 C 7073.2,391.699 6708.2,0 6207.49,0 5704.36,0 5344.81,386.199 5344.81,945.402 v 40 c 0,556.698 364.7,948.098 865.41,948.098 503.43,0 862.98,-386.2 862.98,-945.398" /><path
         id="path26"
         style="fill:#100f0d;fill-opacity:1;fill-rule:nonzero;stroke:none"
         d="m 4471.22,1222.5 v 7.9 c 0,170.5 -98.44,258.4 -271.7,258.4 H 4034.43 V 966.898 h 167.81 c 167.81,0 268.98,98.402 268.98,255.602 z m 479.51,29.1 V 1241 c 0,-447.398 -325.02,-660.301 -732.44,-665.801 H 4034.43 V 34.8008 H 3557.96 V 1898.9 h 665.79 c 439.21,0 726.98,-229 726.98,-647.3" /><path
         id="path28"
         style="fill:#100f0d;fill-opacity:1;fill-rule:nonzero;stroke:none"
         d="M 3086.63,599.199 V 594 c 0,-362.301 -279.88,-585.80078 -679.12,-585.80078 -277.16,0 -540.69,85.10158 -759.08,274.10178 l 255.65,349 c 151.76,-125.102 325.02,-210.602 505.85,-210.602 127.83,0 194.47,56.102 194.47,136 v 2.801 c 0,74.5 -55.73,119.602 -274.13,196.902 -351.68,119.899 -599.15,247.698 -599.15,585.798 v 8.2 c 0,338 258.08,575.2 665.48,575.2 250.51,0 471.64,-69.4 665.8,-226.6 l -242.33,-356.8 c -127.83,98.7 -282.31,170.5 -434.07,170.5 -109.04,0 -170.23,-53.3 -170.23,-122.3 v -2.8 c 0,-82.7 58.46,-125.1 295.64,-213.2 354.1,-114.5 575.22,-258.099 575.22,-575.201" /><path
         id="path30"
         style="fill:#100f0d;fill-opacity:1;fill-rule:nonzero;stroke:none"
         d="M 1294.32,455.602 V 34.8008 H 0 V 1898.9 H 1283.72 V 1478.2 H 474.051 V 1172 H 1203.76 V 775.102 H 474.051 v -319.5 h 820.269" /></g></g></svg>